<svg xmlns="http://www.w3.org/2000/svg" xmlns:xlink="http://www.w3.org/1999/xlink" id="Capa_1" x="0px" y="0px" width="128.1px" height="30px" viewBox="0 0 128.1 30" xml:space="preserve">
<path fill="#014437" d="M43.4,24.8c-1,0-1.9-0.2-2.7-0.7c-0.8-0.5-1.4-1.1-1.8-1.9V30h-3.4V11.3h3v2.3c0.5-0.8,1.2-1.4,1.9-1.8  c0.8-0.4,1.7-0.7,2.7-0.7c0.9,0,1.7,0.2,2.5,0.5c0.8,0.4,1.4,0.8,2,1.5c0.6,0.6,1,1.4,1.3,2.2c0.3,0.8,0.5,1.7,0.5,2.6  c0,1.3-0.3,2.4-0.8,3.5c-0.5,1-1.2,1.9-2.1,2.5C45.5,24.5,44.5,24.8,43.4,24.8z M42.3,21.9c0.5,0,1-0.1,1.4-0.3  c0.4-0.2,0.8-0.5,1.1-0.9c0.3-0.4,0.6-0.8,0.7-1.3c0.2-0.5,0.2-1,0.2-1.5c0-0.6-0.1-1.1-0.3-1.5c-0.2-0.5-0.4-0.9-0.8-1.2  c-0.3-0.4-0.7-0.6-1.2-0.8C43.1,14.1,42.6,14,42,14c-0.3,0-0.6,0.1-1,0.2c-0.3,0.1-0.6,0.3-1,0.5s-0.6,0.4-0.8,0.7  c-0.2,0.3-0.4,0.6-0.5,0.9v3.1c0.2,0.5,0.5,0.9,0.8,1.3c0.3,0.4,0.8,0.7,1.2,0.9C41.3,21.8,41.8,21.9,42.3,21.9z"></path>
<path fill="#014437" d="M58.7,20.7c0-0.9,0.2-1.6,0.7-2.3s1.2-1.1,2-1.5c0.9-0.4,1.9-0.5,3-0.5c0.6,0,1.1,0,1.7,0.1  c0.6,0.1,1.1,0.2,1.5,0.4v-0.7c0-0.8-0.3-1.5-0.8-1.9c-0.5-0.5-1.2-0.7-2.2-0.7c-0.7,0-1.4,0.1-2.1,0.4c-0.7,0.3-1.4,0.6-2.1,1.1  l-1.1-2.2c0.9-0.6,1.8-1,2.7-1.3c0.9-0.3,1.9-0.4,2.9-0.4c1.9,0,3.4,0.5,4.5,1.4c1.1,0.9,1.6,2.3,1.6,4v4.2c0,0.4,0.1,0.6,0.2,0.8  c0.1,0.2,0.3,0.2,0.6,0.3v2.8c-0.3,0.1-0.6,0.1-0.8,0.1c-0.2,0-0.5,0.1-0.6,0.1c-0.7,0-1.2-0.2-1.5-0.5c-0.3-0.3-0.6-0.7-0.6-1.1  l-0.1-0.7c-0.6,0.7-1.3,1.3-2.2,1.7c-0.9,0.4-1.8,0.6-2.7,0.6c-0.9,0-1.7-0.2-2.4-0.5c-0.7-0.4-1.3-0.9-1.7-1.5  C58.9,22.2,58.7,21.5,58.7,20.7z M67,21.3c0.2-0.2,0.3-0.4,0.5-0.6c0.1-0.2,0.2-0.4,0.2-0.5v-1.3c-0.4-0.2-0.8-0.3-1.3-0.4  c-0.5-0.1-0.9-0.1-1.4-0.1c-0.9,0-1.6,0.2-2.2,0.6S62,19.8,62,20.4c0,0.3,0.1,0.6,0.3,0.9c0.2,0.3,0.5,0.5,0.8,0.7  c0.4,0.2,0.8,0.3,1.3,0.3c0.5,0,1-0.1,1.5-0.3C66.3,21.9,66.7,21.6,67,21.3z"></path>
<path fill="#014437" d="M80.5,24.8c-1.1,0-2.1-0.2-2.9-0.5c-0.9-0.4-1.6-0.9-2.2-1.5s-1.1-1.4-1.4-2.2c-0.3-0.8-0.5-1.7-0.5-2.6  c0-1.2,0.3-2.4,0.9-3.4c0.6-1,1.4-1.9,2.4-2.5c1.1-0.6,2.3-0.9,3.7-0.9c1.4,0,2.7,0.3,3.7,0.9c1,0.6,1.8,1.5,2.3,2.5l-3.3,1  c-0.3-0.5-0.7-0.9-1.1-1.1c-0.5-0.3-1-0.4-1.6-0.4c-0.6,0-1.2,0.2-1.8,0.5c-0.5,0.3-1,0.8-1.3,1.4C77.1,16.5,77,17.2,77,18  c0,0.8,0.2,1.4,0.5,2c0.3,0.6,0.7,1.1,1.3,1.4c0.5,0.3,1.1,0.5,1.8,0.5c0.4,0,0.8-0.1,1.2-0.2c0.4-0.1,0.7-0.3,1-0.6  c0.3-0.2,0.5-0.5,0.6-0.8l3.3,1c-0.3,0.7-0.8,1.3-1.3,1.8s-1.3,0.9-2.1,1.2C82.4,24.7,81.5,24.8,80.5,24.8z"></path>
<path fill="#014437" d="M94.7,24.8c-1.1,0-2-0.2-2.9-0.5c-0.9-0.4-1.6-0.9-2.2-1.5c-0.6-0.6-1.1-1.4-1.4-2.2  c-0.3-0.8-0.5-1.7-0.5-2.6c0-1.3,0.3-2.4,0.9-3.5c0.6-1,1.4-1.9,2.4-2.5c1.1-0.6,2.3-0.9,3.8-0.9c1.5,0,2.7,0.3,3.7,0.9  c1,0.6,1.8,1.5,2.4,2.5c0.6,1,0.8,2.2,0.8,3.3c0,0.2,0,0.4,0,0.6c0,0.2,0,0.4-0.1,0.5H91.3c0.1,0.7,0.3,1.2,0.6,1.7  c0.3,0.5,0.8,0.9,1.3,1.1c0.5,0.3,1.1,0.4,1.7,0.4c0.7,0,1.3-0.2,1.9-0.5c0.6-0.3,1-0.8,1.2-1.3l2.9,0.8c-0.3,0.7-0.8,1.3-1.4,1.8  c-0.6,0.5-1.3,0.9-2.1,1.2C96.6,24.7,95.7,24.8,94.7,24.8z M91.2,16.9h7c-0.1-0.7-0.3-1.2-0.6-1.7c-0.3-0.5-0.7-0.9-1.2-1.1  c-0.5-0.3-1.1-0.4-1.7-0.4c-0.6,0-1.2,0.1-1.7,0.4c-0.5,0.3-0.9,0.7-1.2,1.1C91.5,15.7,91.3,16.2,91.2,16.9z"></path>
<path fill="#014437" d="M57.2,24.2c-0.4-0.7-0.7-1.5-0.9-2.3c-0.1,0-0.1,0-0.2,0c-0.4,0-0.6-0.1-0.8-0.3c-0.2-0.2-0.3-0.6-0.3-1.2V6  h-3.4v15.6c0,1.1,0.3,1.9,0.9,2.4c0.6,0.6,1.4,0.9,2.5,0.9c0.5,0,1-0.1,1.7-0.2c0.3-0.1,0.6-0.1,0.8-0.2  C57.3,24.4,57.2,24.3,57.2,24.2z"></path>
<circle fill="#014437" cx="108.4" cy="8" r="1.9"></circle>
<path fill="#014437" d="M106.7,24.9V11.5h3.4v13.4H106.7z"></path>
<path fill="#014437" d="M125.6,24.9h-3.4v-7.4c0-1.1-0.2-1.8-0.6-2.3c-0.4-0.5-0.9-0.7-1.6-0.7c-0.5,0-0.9,0.1-1.4,0.3  s-0.9,0.6-1.3,1c-0.4,0.4-0.6,0.9-0.8,1.4v7.7h-3.4V11.6h3.1v2.5c0.3-0.6,0.8-1.1,1.3-1.4c0.5-0.4,1.1-0.7,1.8-0.9  c0.7-0.2,1.4-0.3,2.2-0.3c0.8,0,1.5,0.1,2.1,0.4c0.5,0.3,0.9,0.7,1.2,1.2s0.5,1.1,0.6,1.7c0.1,0.6,0.2,1.3,0.2,1.9L125.6,24.9  L125.6,24.9z"></path>
<linearGradient id="SVGID_1_" gradientUnits="userSpaceOnUse" x1="-8.8108" y1="152.0455" x2="27.4858" y2="138.6032" gradientTransform="matrix(1 0 0 -1 0 158)">
	<stop offset="2.020496e-07" style="stop-color:#057B6B"></stop>
	<stop offset="0.8449" style="stop-color:#009F63"></stop>
</linearGradient>
<path fill="url(#SVGID_1_)" d="M25.7,5.7c-0.6-1.3-1.4-2.3-2.4-3.2c-1-0.8-2.3-1.5-3.7-1.9C18.2,0.2,16.6,0,15,0H1.7  C0.8,0,0.1,0.7,0.1,1.6l0,21.3c0,0,0,0,0,0l0,2.1l8.4-4.9c0.1,0,0.1-0.1,0.2-0.1h6.1c1.6,0,3.2-0.2,4.6-0.6c1.5-0.4,2.7-1.1,3.8-1.9  c1.1-0.9,1.9-1.9,2.5-3.2c0.6-1.3,0.9-2.7,0.9-4.4V9.9C26.5,8.4,26.2,7,25.7,5.7z M8.5,14.9c-0.2,0.2-0.4,0.3-0.7,0.4c0,0,0,0,0,0  c-0.3,0-0.5-0.1-0.7-0.3l-3.6-3.6c-0.4-0.4-0.4-1,0-1.4c0.4-0.4,1-0.4,1.4,0l2.8,2.8l6.2-7.4c0.4-0.4,1-0.5,1.4-0.1  c0.4,0.4,0.5,1,0.1,1.4L8.5,14.9z M21.1,6.7l-6.9,8.2c-0.2,0.2-0.4,0.3-0.7,0.4c0,0,0,0,0,0c-0.3,0-0.5-0.1-0.7-0.3l-1.4-1.4  l1.3-1.5l0.7,0.7l6.2-7.4c0.4-0.4,1-0.5,1.4-0.1C21.4,5.6,21.5,6.3,21.1,6.7z"></path>
</svg>